<?xml version="1.0" encoding="utf-8"?>
<!-- Generator: Adobe Illustrator 26.1.0, SVG Export Plug-In . SVG Version: 6.00 Build 0)  -->
<svg version="1.1" id="Ebene_1" xmlns="http://www.w3.org/2000/svg" xmlns:xlink="http://www.w3.org/1999/xlink" x="0px" y="0px"
	 viewBox="0 0 2000 375" style="enable-background:new 0 0 2000 375;" xml:space="preserve">
<style type="text/css">
	.st0{fill:#333333;}
	.st1{fill:#439B45;}
</style>
<g>
	<path class="st0" d="M1578.6,375c17.8,0,34.9-3.5,51.1-10.5c16.3-7,30.3-16.7,42.2-28.9c12.2-12.6,21.8-27,28.6-43.1
		c6.8-16.1,10.2-33.3,10.2-51.5V133.6l0,0l0,0c0-73.8-59.7-133.6-133.3-133.6c-73.6,0-133.3,59.8-133.3,133.6
		c0,73.8,59.7,133.6,133.3,133.6c33.2,0,63.5-12.2,86.8-32.3v6c0,11.6-3,22.6-7.3,33.1c-4.4,10.5-10.4,19.8-18.1,27.9
		c-7.7,8.1-16.8,14.4-27.3,18.9c-10.5,4.6-21.5,6.8-33.1,6.8V375z M1577.6,220.6c-48,0-86.8-39-86.8-87c0-48.1,38.9-87,86.8-87
		s86.8,39,86.8,87C1664.4,181.7,1625.5,220.6,1577.6,220.6z"/>
	<path class="st1" d="M203.9,65.5c-5.5-13-13.1-24.3-22.7-33.9c-9.9-10-21.4-17.7-34.4-23.2c-13-5.5-26.6-8.3-40.8-8.3
		S78.3,2.8,65.3,8.3c-13,5.5-24.4,13.3-34.4,23.2c-9.6,9.6-17.1,20.9-22.7,33.9C2.8,78.5,0,92.3,0,106.9v160.3h46.9V106.9
		c0-16,5.9-29.9,17.6-41.7c11.4-11.4,25.2-17.1,41.6-17.1s30.2,5.7,41.6,17.1c11.7,11.8,17.6,25.7,17.6,41.7v160.3h46.9V106.9
		C212.2,92.3,209.4,78.5,203.9,65.5z"/>
	<path class="st1" d="M288.5,152.2c0,8.5,3.1,17.3,9.3,26.5c6.2,9.2,13.3,17,21.4,23.3c14.8,11.7,32.1,17.5,51.9,17.5
		c31.4,0,57-15.2,76.7-45.6l40.2,23.9c-13.8,22.3-30.7,39.4-50.8,51.4c-20.1,12-42.1,18-66.1,18c-18,0-35.1-3.5-51.3-10.3
		c-16.2-6.9-30.5-16.5-42.9-28.9c-12.3-12.4-22-26.7-28.8-43c-6.9-16.3-10.3-33.4-10.3-51.5c0-18,3.4-35.3,10.3-51.7
		c6.9-16.4,16.5-30.8,28.8-43.2c12-12.4,26.2-21.9,42.6-28.6S353,0,371,0c18,0,35.2,3.4,51.6,10.1c16.4,6.7,30.6,16.3,42.6,28.6
		c26.1,26.9,39.1,58,39.1,93.3c0,6.4-0.5,13.1-1.6,20.2H288.5z M330.3,53c-12.7,6.4-22.8,14.8-30.4,25.2
		c-7.6,10.4-11.4,21.5-11.4,33.2h165.1c0-11.7-3.8-22.7-11.4-33.2c-7.6-10.4-17.7-18.8-30.4-25.2c-12.7-6.4-26.3-9.5-40.7-9.5
		C356.6,43.5,343,46.7,330.3,53z"/>
	<path class="st0" d="M1421.6,47.2c-14,0-25.5,5-34.6,14.8c-9.8,10.6-14.7,22.8-14.7,36.6v168.6h-45.1V98.6
		c0-19.1,4.8-36.6,14.4-52.5c9.6-15.9,22.8-28.3,39.6-37.1c12.6-6,26.1-9,40.4-9V47.2z"/>
	<path class="st0" d="M1815.3,256.7c-16.1-7-30.3-16.6-42.5-28.9c-12.2-12.3-21.9-26.5-28.9-42.6c-7-16.1-10.5-33.1-10.5-51
		c0-18.2,3.5-35.6,10.5-52.1c7-16.5,16.6-30.9,28.9-43.1c12.2-12.3,26.4-21.8,42.5-28.7c16.1-6.8,33.1-10.2,50.9-10.2
		c18.2,0,35.5,3.4,51.9,10.2c16.4,6.8,30.8,16.4,43,28.7c12.2,12.3,21.8,26.7,28.6,43.1c6.8,16.5,10.2,33.8,10.2,52.1
		c0,17.9-3.4,34.9-10.2,51c-6.8,16.1-16.4,30.3-28.6,42.6c-12.2,12.3-26.6,21.9-43,28.9c-16.4,7-33.8,10.5-51.9,10.5
		C1848.4,267.2,1831.4,263.7,1815.3,256.7z M1805.9,72c-8.1,8.1-14.3,17.5-18.9,28.4c-4.6,10.9-6.8,22.1-6.8,33.7
		c0,11.6,2.3,22.6,6.8,33.1c4.5,10.5,10.8,19.8,18.9,27.9c8,8.1,17.2,14.4,27.5,18.9c10.3,4.6,21.2,6.8,32.8,6.8
		c11.5,0,22.7-2.3,33.6-6.8c10.8-4.6,20.1-10.9,27.8-18.9c7.7-8.1,13.8-17.4,18.4-27.9c4.5-10.5,6.8-21.6,6.8-33.1
		c0-11.6-2.3-22.8-6.8-33.7c-4.6-10.9-10.7-20.3-18.4-28.4c-7.7-8.1-16.9-14.3-27.5-18.7c-10.7-4.4-22-6.6-33.8-6.6
		C1842.8,46.8,1822.7,55.2,1805.9,72z"/>
	<g>
		<path class="st0" d="M968.9,133.6c-1.2,93.2-125.3,119.9-165.3,37.3c-4.7,17.5-12.5,34-23.1,49.1c79.4,93.8,234.4,38,234.8-86.4
			H968.9z"/>
		<path class="st1" d="M974.8,37.7C936.4-0.6,873.4-11.6,823.5,13.6C791,29.4,765.7,59,754.9,93.5c-4,13-6.1,26.5-6.1,40.1
			c0.1,29.6-15,56.9-39.4,72.9c-12.4,8.1-26.9,13-41.7,13.9c-48.8,3.8-93-36.4-92.6-86.8c1.3-93.2,125.2-119.9,165.3-37.3
			c4.7-17.5,12.5-34,23.1-49.1c-79.3-93.8-234.4-38.1-234.8,86.4c0,62.3,42.5,114.6,100,129.4c13.1,3.4,26.7,4.7,40.3,4
			c24.4-1.2,48.3-9.4,68.4-23.2c0,0,0,0,0,0c35.9-24.9,57.8-65.1,57.9-110.1c0-48.1,38.9-87,86.8-87v0c23.2,0,44.3,9.2,59.9,24.1
			L974.8,37.7z"/>
	</g>
	<path class="st0" d="M1301.7,133.6C1301.7,59.8,1242,0,1168.4,0c-73.6,0-133.3,59.8-133.3,133.6c0,73.8,59.7,133.6,133.3,133.6
		c33.2,0,63.5-12.2,86.8-32.3v32.3h46.4V133.6L1301.7,133.6L1301.7,133.6z M1168.4,220.6c-48,0-86.8-39-86.8-87
		c0-48.1,38.9-87,86.8-87s86.8,39,86.8,87C1255.3,181.7,1216.4,220.6,1168.4,220.6z"/>
</g>
</svg>
